<svg width="480" height="480" viewBox="0 0 480 480" fill="none" xmlns="http://www.w3.org/2000/svg">
<g clip-path="url(#clip0_21_2)">
<rect width="480" height="480" fill="#FCEFEE"/>
<path d="M247.04 65.76L364.16 367.68C368.96 379.84 374.4 388 380.48 392.16C386.56 396 392.16 398.08 397.28 398.4V408C390.88 407.36 383.04 407.04 373.76 407.04C364.48 406.72 355.2 406.56 345.92 406.56C333.44 406.56 321.76 406.72 310.88 407.04C300 407.04 291.2 407.36 284.48 408V398.4C300.8 397.76 311.2 395.04 315.68 390.24C320.16 385.12 319.2 374.4 312.8 358.08L223.52 119.52L231.2 113.28L147.68 330.24C142.56 343.04 139.52 353.92 138.56 362.88C137.6 371.52 138.4 378.4 140.96 383.52C143.84 388.64 148.48 392.32 154.88 394.56C161.6 396.8 169.92 398.08 179.84 398.4V408C170.88 407.36 161.44 407.04 151.52 407.04C141.92 406.72 132.96 406.56 124.64 406.56C116.64 406.56 109.76 406.72 104 407.04C98.56 407.04 93.44 407.36 88.64 408V398.4C95.04 396.8 101.6 393.12 108.32 387.36C115.04 381.28 121.12 371.04 126.56 356.64L239.36 65.76C240.64 65.76 241.92 65.76 243.2 65.76C244.48 65.76 245.76 65.76 247.04 65.76ZM305.6 269.76V279.36H162.56L167.36 269.76H305.6Z" fill="#188C7E"/>
<path d="M240.04 65.76L357.16 367.68C361.96 379.84 367.4 388 373.48 392.16C379.56 396 385.16 398.08 390.28 398.4V408C383.88 407.36 376.04 407.04 366.76 407.04C357.48 406.72 348.2 406.56 338.92 406.56C326.44 406.56 314.76 406.72 303.88 407.04C293 407.04 284.2 407.36 277.48 408V398.4C293.8 397.76 304.2 395.04 308.68 390.24C313.16 385.12 312.2 374.4 305.8 358.08L216.52 119.52L224.2 113.28L140.68 330.24C135.56 343.04 132.52 353.92 131.56 362.88C130.6 371.52 131.4 378.4 133.96 383.52C136.84 388.64 141.48 392.32 147.88 394.56C154.6 396.8 162.92 398.08 172.84 398.4V408C163.88 407.36 154.44 407.04 144.52 407.04C134.92 406.72 125.96 406.56 117.64 406.56C109.64 406.56 102.76 406.72 97 407.04C91.56 407.04 86.44 407.36 81.64 408V398.4C88.04 396.8 94.6 393.12 101.32 387.36C108.04 381.28 114.12 371.04 119.56 356.64L232.36 65.76C233.64 65.76 234.92 65.76 236.2 65.76C237.48 65.76 238.76 65.76 240.04 65.76ZM298.6 269.76V279.36H155.56L160.36 269.76H298.6Z" fill="#D74753"/>
</g>
<defs>
<clipPath id="clip0_21_2">
<rect width="480" height="480" fill="white"/>
</clipPath>
</defs>
</svg>
